<mxfile host="app.diagrams.net" agent="Mozilla/5.0 (X11; Ubuntu; Linux x86_64; rv:137.0) Gecko/20100101 Firefox/137.0" version="26.2.13" pages="3">
  <diagram id="_qhjumxUdvLVX4JTFWmV" name="cadastro-login">
    <mxGraphModel dx="497" dy="278" grid="1" gridSize="10" guides="1" tooltips="1" connect="1" arrows="1" fold="1" page="1" pageScale="1" pageWidth="850" pageHeight="1100" math="0" shadow="0">
      <root>
        <mxCell id="0" />
        <mxCell id="1" parent="0" />
        <mxCell id="CglSYAd1nXh7EPa9f2NP-1" style="edgeStyle=orthogonalEdgeStyle;rounded=0;orthogonalLoop=1;jettySize=auto;html=1;entryX=0.5;entryY=0;entryDx=0;entryDy=0;strokeColor=light-dark(#049402,#049402);" edge="1" parent="1" source="CglSYAd1nXh7EPa9f2NP-4" target="CglSYAd1nXh7EPa9f2NP-8">
          <mxGeometry relative="1" as="geometry" />
        </mxCell>
        <mxCell id="CglSYAd1nXh7EPa9f2NP-2" style="edgeStyle=orthogonalEdgeStyle;rounded=0;orthogonalLoop=1;jettySize=auto;html=1;entryX=0.5;entryY=0;entryDx=0;entryDy=0;strokeColor=light-dark(#000000,#049402);" edge="1" parent="1" source="CglSYAd1nXh7EPa9f2NP-4" target="CglSYAd1nXh7EPa9f2NP-6">
          <mxGeometry relative="1" as="geometry" />
        </mxCell>
        <mxCell id="CglSYAd1nXh7EPa9f2NP-3" style="edgeStyle=orthogonalEdgeStyle;rounded=0;orthogonalLoop=1;jettySize=auto;html=1;fillColor=#60a917;strokeColor=light-dark(#2D7600,#049402);entryX=0.5;entryY=0;entryDx=0;entryDy=0;" edge="1" parent="1" source="CglSYAd1nXh7EPa9f2NP-4" target="CglSYAd1nXh7EPa9f2NP-10">
          <mxGeometry relative="1" as="geometry">
            <mxPoint x="620" y="180" as="targetPoint" />
            <Array as="points">
              <mxPoint x="580" y="100" />
            </Array>
          </mxGeometry>
        </mxCell>
        <mxCell id="CglSYAd1nXh7EPa9f2NP-4" value="&lt;b&gt;HOME&lt;/b&gt;" style="rounded=1;whiteSpace=wrap;html=1;strokeColor=light-dark(#000000,#049402);" vertex="1" parent="1">
          <mxGeometry x="350" y="70" width="120" height="60" as="geometry" />
        </mxCell>
        <mxCell id="CglSYAd1nXh7EPa9f2NP-5" value="" style="edgeStyle=orthogonalEdgeStyle;rounded=0;orthogonalLoop=1;jettySize=auto;html=1;strokeColor=light-dark(#049402,#049402);" edge="1" parent="1" source="CglSYAd1nXh7EPa9f2NP-6" target="CglSYAd1nXh7EPa9f2NP-16">
          <mxGeometry relative="1" as="geometry" />
        </mxCell>
        <mxCell id="CglSYAd1nXh7EPa9f2NP-6" value="&lt;div&gt;&lt;b&gt;Clicar no botão&lt;/b&gt;&lt;/div&gt;&lt;div&gt;&lt;b&gt;&quot;Inscreva-se&quot; na Home&lt;/b&gt;&lt;/div&gt;" style="rounded=0;whiteSpace=wrap;html=1;strokeColor=light-dark(#000000,#049402);" vertex="1" parent="1">
          <mxGeometry x="350" y="190" width="120" height="60" as="geometry" />
        </mxCell>
        <mxCell id="CglSYAd1nXh7EPa9f2NP-7" style="edgeStyle=orthogonalEdgeStyle;rounded=0;orthogonalLoop=1;jettySize=auto;html=1;" edge="1" parent="1" source="CglSYAd1nXh7EPa9f2NP-8" target="CglSYAd1nXh7EPa9f2NP-18">
          <mxGeometry relative="1" as="geometry" />
        </mxCell>
        <mxCell id="CglSYAd1nXh7EPa9f2NP-8" value="&lt;b&gt;Clicar em no menu &quot;Cronograma&quot; no cabeçalho da Home&lt;/b&gt;" style="rounded=0;whiteSpace=wrap;html=1;strokeColor=light-dark(#000000,#049402);" vertex="1" parent="1">
          <mxGeometry x="180" y="190" width="120" height="60" as="geometry" />
        </mxCell>
        <mxCell id="CglSYAd1nXh7EPa9f2NP-9" style="edgeStyle=orthogonalEdgeStyle;rounded=0;orthogonalLoop=1;jettySize=auto;html=1;entryX=0.5;entryY=0;entryDx=0;entryDy=0;strokeColor=light-dark(#049402,#049402);" edge="1" parent="1" source="CglSYAd1nXh7EPa9f2NP-10" target="CglSYAd1nXh7EPa9f2NP-16">
          <mxGeometry relative="1" as="geometry">
            <Array as="points">
              <mxPoint x="580" y="380" />
              <mxPoint x="410" y="380" />
            </Array>
          </mxGeometry>
        </mxCell>
        <mxCell id="CglSYAd1nXh7EPa9f2NP-10" value="&lt;div&gt;&lt;b&gt;Clicar no botão&lt;/b&gt;&lt;/div&gt;&lt;div&gt;&lt;b&gt;&quot;Área do participante&quot; no cabeçalho da Home&lt;/b&gt;&lt;/div&gt;" style="rounded=0;whiteSpace=wrap;html=1;strokeColor=light-dark(#000000,#049402);" vertex="1" parent="1">
          <mxGeometry x="520" y="190" width="120" height="60" as="geometry" />
        </mxCell>
        <mxCell id="CglSYAd1nXh7EPa9f2NP-11" style="edgeStyle=orthogonalEdgeStyle;rounded=0;orthogonalLoop=1;jettySize=auto;html=1;strokeColor=light-dark(#049402,#049402);" edge="1" parent="1" source="CglSYAd1nXh7EPa9f2NP-12" target="CglSYAd1nXh7EPa9f2NP-14">
          <mxGeometry relative="1" as="geometry" />
        </mxCell>
        <mxCell id="CglSYAd1nXh7EPa9f2NP-12" value="&lt;b&gt;Clicar no botão &quot;Cadastre-se&quot; na tela de login e cadastro&lt;/b&gt;" style="rounded=0;whiteSpace=wrap;html=1;strokeColor=light-dark(#049402,#049402);" vertex="1" parent="1">
          <mxGeometry x="350" y="570" width="120" height="60" as="geometry" />
        </mxCell>
        <mxCell id="CglSYAd1nXh7EPa9f2NP-13" value="" style="edgeStyle=orthogonalEdgeStyle;rounded=0;orthogonalLoop=1;jettySize=auto;html=1;strokeColor=light-dark(#049402,#049402);" edge="1" parent="1" source="CglSYAd1nXh7EPa9f2NP-14" target="CglSYAd1nXh7EPa9f2NP-20">
          <mxGeometry relative="1" as="geometry" />
        </mxCell>
        <mxCell id="CglSYAd1nXh7EPa9f2NP-14" value="&lt;div&gt;&lt;b&gt;Preencher o&lt;/b&gt;&lt;/div&gt;&lt;div&gt;&lt;b&gt;formulário com as&amp;nbsp;&lt;/b&gt;&lt;/div&gt;&lt;div&gt;&lt;b&gt;suas informações&lt;/b&gt;&lt;/div&gt;" style="shape=parallelogram;perimeter=parallelogramPerimeter;whiteSpace=wrap;html=1;fixedSize=1;strokeColor=light-dark(#049402,#049402);" vertex="1" parent="1">
          <mxGeometry x="330" y="690" width="160" height="70" as="geometry" />
        </mxCell>
        <mxCell id="CglSYAd1nXh7EPa9f2NP-15" style="edgeStyle=orthogonalEdgeStyle;rounded=0;orthogonalLoop=1;jettySize=auto;html=1;strokeColor=light-dark(#049402,#049402);entryX=0.5;entryY=0;entryDx=0;entryDy=0;" edge="1" parent="1" source="CglSYAd1nXh7EPa9f2NP-16" target="CglSYAd1nXh7EPa9f2NP-12">
          <mxGeometry relative="1" as="geometry">
            <mxPoint x="409.9999999999998" y="570" as="targetPoint" />
          </mxGeometry>
        </mxCell>
        <mxCell id="CglSYAd1nXh7EPa9f2NP-16" value="&lt;b&gt;Tela de Login e Cadastro&lt;/b&gt;" style="rounded=0;whiteSpace=wrap;html=1;strokeColor=light-dark(#049402,#049402);" vertex="1" parent="1">
          <mxGeometry x="350" y="450" width="120" height="60" as="geometry" />
        </mxCell>
        <mxCell id="CglSYAd1nXh7EPa9f2NP-17" style="edgeStyle=orthogonalEdgeStyle;rounded=0;orthogonalLoop=1;jettySize=auto;html=1;entryX=0.5;entryY=0;entryDx=0;entryDy=0;strokeColor=light-dark(#049402,#049402);" edge="1" parent="1" source="CglSYAd1nXh7EPa9f2NP-18" target="CglSYAd1nXh7EPa9f2NP-16">
          <mxGeometry relative="1" as="geometry">
            <Array as="points">
              <mxPoint x="240" y="380" />
              <mxPoint x="410" y="380" />
            </Array>
          </mxGeometry>
        </mxCell>
        <mxCell id="CglSYAd1nXh7EPa9f2NP-18" value="&lt;div&gt;&lt;b&gt;Clicar em&amp;nbsp;&lt;/b&gt;&lt;/div&gt;&lt;div&gt;&lt;b&gt;&quot;Inscreva-se&quot; em qualquer atividade do cronograma&lt;/b&gt;&lt;/div&gt;" style="rounded=0;whiteSpace=wrap;html=1;strokeColor=light-dark(#000000,#049402);" vertex="1" parent="1">
          <mxGeometry x="180" y="290" width="120" height="60" as="geometry" />
        </mxCell>
        <mxCell id="CglSYAd1nXh7EPa9f2NP-19" value="" style="edgeStyle=orthogonalEdgeStyle;rounded=0;orthogonalLoop=1;jettySize=auto;html=1;strokeColor=light-dark(#049402,#049402);" edge="1" parent="1" source="CglSYAd1nXh7EPa9f2NP-20" target="CglSYAd1nXh7EPa9f2NP-22">
          <mxGeometry relative="1" as="geometry" />
        </mxCell>
        <mxCell id="CglSYAd1nXh7EPa9f2NP-20" value="&lt;b&gt;Ler e aceitar os termos&lt;/b&gt;" style="whiteSpace=wrap;html=1;strokeColor=light-dark(#049402,#049402);" vertex="1" parent="1">
          <mxGeometry x="350" y="820" width="120" height="60" as="geometry" />
        </mxCell>
        <mxCell id="Blrm98Ojpczqfsh3qHlc-1" value="" style="edgeStyle=orthogonalEdgeStyle;rounded=0;orthogonalLoop=1;jettySize=auto;html=1;strokeColor=light-dark(#049402,#049402);" edge="1" parent="1" source="CglSYAd1nXh7EPa9f2NP-22" target="CglSYAd1nXh7EPa9f2NP-24">
          <mxGeometry relative="1" as="geometry" />
        </mxCell>
        <mxCell id="CglSYAd1nXh7EPa9f2NP-22" value="&lt;b&gt;Finalizar cadastro&lt;/b&gt;" style="whiteSpace=wrap;html=1;strokeColor=light-dark(#049402,#049402);" vertex="1" parent="1">
          <mxGeometry x="350" y="940" width="120" height="60" as="geometry" />
        </mxCell>
        <mxCell id="Blrm98Ojpczqfsh3qHlc-2" value="" style="edgeStyle=orthogonalEdgeStyle;rounded=0;orthogonalLoop=1;jettySize=auto;html=1;strokeColor=light-dark(#049402,#049402);" edge="1" parent="1" source="CglSYAd1nXh7EPa9f2NP-24" target="CglSYAd1nXh7EPa9f2NP-26">
          <mxGeometry relative="1" as="geometry" />
        </mxCell>
        <mxCell id="CglSYAd1nXh7EPa9f2NP-24" value="&lt;div&gt;&lt;b&gt;Inserir seu email institucional e senha cadastrados nos&amp;nbsp;&lt;/b&gt;&lt;/div&gt;&lt;div&gt;&lt;b&gt;espaços indicados&lt;/b&gt;&lt;/div&gt;" style="shape=parallelogram;perimeter=parallelogramPerimeter;whiteSpace=wrap;html=1;fixedSize=1;strokeColor=light-dark(#049402,#049402);" vertex="1" parent="1">
          <mxGeometry x="330" y="1060" width="160" height="70" as="geometry" />
        </mxCell>
        <mxCell id="Blrm98Ojpczqfsh3qHlc-3" value="" style="edgeStyle=orthogonalEdgeStyle;rounded=0;orthogonalLoop=1;jettySize=auto;html=1;strokeColor=light-dark(#049402,#049402);" edge="1" parent="1" source="CglSYAd1nXh7EPa9f2NP-26" target="CglSYAd1nXh7EPa9f2NP-28">
          <mxGeometry relative="1" as="geometry" />
        </mxCell>
        <mxCell id="CglSYAd1nXh7EPa9f2NP-26" value="&lt;b&gt;Fazer login, para acessar à área do participante&lt;/b&gt;" style="whiteSpace=wrap;html=1;strokeColor=light-dark(#049402,#049402);" vertex="1" parent="1">
          <mxGeometry x="350" y="1190" width="120" height="60" as="geometry" />
        </mxCell>
        <mxCell id="CglSYAd1nXh7EPa9f2NP-27" value="" style="edgeStyle=orthogonalEdgeStyle;rounded=0;orthogonalLoop=1;jettySize=auto;html=1;strokeColor=light-dark(#049402,#049402);" edge="1" parent="1" source="CglSYAd1nXh7EPa9f2NP-28" target="CglSYAd1nXh7EPa9f2NP-29">
          <mxGeometry relative="1" as="geometry" />
        </mxCell>
        <mxCell id="CglSYAd1nXh7EPa9f2NP-28" value="&lt;b&gt;Acesso à área do participante&lt;/b&gt;" style="whiteSpace=wrap;html=1;strokeColor=light-dark(#049402,#049402);" vertex="1" parent="1">
          <mxGeometry x="350" y="1310" width="120" height="60" as="geometry" />
        </mxCell>
        <mxCell id="CglSYAd1nXh7EPa9f2NP-29" value="&lt;b&gt;FIM&lt;/b&gt;" style="rounded=1;whiteSpace=wrap;html=1;strokeColor=light-dark(#049402,#049402);" vertex="1" parent="1">
          <mxGeometry x="350" y="1430" width="120" height="60" as="geometry" />
        </mxCell>
      </root>
    </mxGraphModel>
  </diagram>
  <diagram name="inscricao-atividades" id="yg9ErJbviyna3WSjK9qS">
    <mxGraphModel dx="1044" dy="584" grid="1" gridSize="10" guides="1" tooltips="1" connect="1" arrows="1" fold="1" page="1" pageScale="1" pageWidth="850" pageHeight="1100" background="none" math="0" shadow="0">
      <root>
        <mxCell id="0" />
        <mxCell id="1" parent="0" />
        <mxCell id="QKP0d6ILZ1PcQhUBXS5q-73" value="" style="rounded=0;whiteSpace=wrap;html=1;fillColor=none;dashed=1;dashPattern=8 8;strokeColor=light-dark(#000000,#FFFFFF);" vertex="1" parent="1">
          <mxGeometry x="540" y="550" width="170" height="550" as="geometry" />
        </mxCell>
        <mxCell id="QKP0d6ILZ1PcQhUBXS5q-69" value="" style="rounded=0;whiteSpace=wrap;html=1;fillColor=none;dashed=1;dashPattern=8 8;strokeColor=light-dark(#000000,#FFFFFF);" vertex="1" parent="1">
          <mxGeometry x="90" y="550" width="170" height="550" as="geometry" />
        </mxCell>
        <mxCell id="QKP0d6ILZ1PcQhUBXS5q-5" style="edgeStyle=orthogonalEdgeStyle;rounded=0;orthogonalLoop=1;jettySize=auto;html=1;entryX=0.5;entryY=0;entryDx=0;entryDy=0;strokeColor=light-dark(#049402,#049402);" edge="1" parent="1" source="QKP0d6ILZ1PcQhUBXS5q-2" target="QKP0d6ILZ1PcQhUBXS5q-1">
          <mxGeometry relative="1" as="geometry" />
        </mxCell>
        <mxCell id="QKP0d6ILZ1PcQhUBXS5q-7" style="edgeStyle=orthogonalEdgeStyle;rounded=0;orthogonalLoop=1;jettySize=auto;html=1;entryX=0.5;entryY=0;entryDx=0;entryDy=0;strokeColor=light-dark(#000000,#049402);" edge="1" parent="1" source="QKP0d6ILZ1PcQhUBXS5q-2" target="QKP0d6ILZ1PcQhUBXS5q-6">
          <mxGeometry relative="1" as="geometry" />
        </mxCell>
        <mxCell id="QKP0d6ILZ1PcQhUBXS5q-8" style="edgeStyle=orthogonalEdgeStyle;rounded=0;orthogonalLoop=1;jettySize=auto;html=1;fillColor=#60a917;strokeColor=light-dark(#2D7600,#049402);entryX=0.5;entryY=0;entryDx=0;entryDy=0;" edge="1" parent="1" source="QKP0d6ILZ1PcQhUBXS5q-2" target="QKP0d6ILZ1PcQhUBXS5q-9">
          <mxGeometry relative="1" as="geometry">
            <mxPoint x="610" y="170" as="targetPoint" />
            <Array as="points">
              <mxPoint x="570" y="90" />
            </Array>
          </mxGeometry>
        </mxCell>
        <mxCell id="QKP0d6ILZ1PcQhUBXS5q-2" value="&lt;b&gt;HOME&lt;/b&gt;" style="rounded=1;whiteSpace=wrap;html=1;strokeColor=light-dark(#000000,#049402);" vertex="1" parent="1">
          <mxGeometry x="340" y="60" width="120" height="60" as="geometry" />
        </mxCell>
        <mxCell id="QKP0d6ILZ1PcQhUBXS5q-3" value="&lt;b&gt;FIM&lt;/b&gt;" style="rounded=1;whiteSpace=wrap;html=1;strokeColor=light-dark(#000000,#049402);labelBorderColor=none;" vertex="1" parent="1">
          <mxGeometry x="340" y="1860" width="120" height="60" as="geometry" />
        </mxCell>
        <mxCell id="QKP0d6ILZ1PcQhUBXS5q-17" style="edgeStyle=orthogonalEdgeStyle;rounded=0;orthogonalLoop=1;jettySize=auto;html=1;entryX=0.5;entryY=0;entryDx=0;entryDy=0;strokeColor=light-dark(#049402,#049402);exitX=1;exitY=0.5;exitDx=0;exitDy=0;" edge="1" parent="1" source="QKP0d6ILZ1PcQhUBXS5q-4" target="QKP0d6ILZ1PcQhUBXS5q-45">
          <mxGeometry relative="1" as="geometry">
            <mxPoint x="474.9999999999999" y="589.9999999999999" as="sourcePoint" />
            <mxPoint x="400" y="1160" as="targetPoint" />
            <Array as="points">
              <mxPoint x="600" y="620" />
              <mxPoint x="600" y="1060" />
              <mxPoint x="400" y="1060" />
            </Array>
          </mxGeometry>
        </mxCell>
        <mxCell id="QKP0d6ILZ1PcQhUBXS5q-84" value="SIM" style="edgeLabel;html=1;align=center;verticalAlign=middle;resizable=0;points=[];fontStyle=1" vertex="1" connectable="0" parent="QKP0d6ILZ1PcQhUBXS5q-17">
          <mxGeometry x="-0.4118" y="-3" relative="1" as="geometry">
            <mxPoint x="-87" y="-118" as="offset" />
          </mxGeometry>
        </mxCell>
        <mxCell id="QKP0d6ILZ1PcQhUBXS5q-82" style="edgeStyle=orthogonalEdgeStyle;rounded=0;orthogonalLoop=1;jettySize=auto;html=1;entryX=1;entryY=0.5;entryDx=0;entryDy=0;strokeColor=light-dark(#049402,#049402);" edge="1" parent="1" source="QKP0d6ILZ1PcQhUBXS5q-4" target="QKP0d6ILZ1PcQhUBXS5q-23">
          <mxGeometry relative="1" as="geometry" />
        </mxCell>
        <mxCell id="QKP0d6ILZ1PcQhUBXS5q-83" value="NÃO" style="edgeLabel;html=1;align=center;verticalAlign=middle;resizable=0;points=[];fontStyle=1" vertex="1" connectable="0" parent="QKP0d6ILZ1PcQhUBXS5q-82">
          <mxGeometry x="-0.1373" y="1" relative="1" as="geometry">
            <mxPoint x="2" y="-1" as="offset" />
          </mxGeometry>
        </mxCell>
        <mxCell id="QKP0d6ILZ1PcQhUBXS5q-4" value="&lt;div&gt;&lt;b&gt;Já possui conta na&amp;nbsp;&lt;/b&gt;&lt;/div&gt;&lt;div&gt;&lt;b&gt;SIEEL?&lt;/b&gt;&lt;/div&gt;" style="rhombus;whiteSpace=wrap;html=1;strokeColor=light-dark(#000000,#049402);" vertex="1" parent="1">
          <mxGeometry x="325" y="560" width="150" height="120" as="geometry" />
        </mxCell>
        <mxCell id="QKP0d6ILZ1PcQhUBXS5q-29" value="" style="edgeStyle=orthogonalEdgeStyle;rounded=0;orthogonalLoop=1;jettySize=auto;html=1;strokeColor=light-dark(#049402,#049402);" edge="1" parent="1" source="QKP0d6ILZ1PcQhUBXS5q-6" target="QKP0d6ILZ1PcQhUBXS5q-27">
          <mxGeometry relative="1" as="geometry" />
        </mxCell>
        <mxCell id="QKP0d6ILZ1PcQhUBXS5q-6" value="&lt;div&gt;&lt;b&gt;Clicar no botão&lt;/b&gt;&lt;/div&gt;&lt;div&gt;&lt;b&gt;&quot;Inscreva-se&quot; na Home&lt;/b&gt;&lt;/div&gt;" style="rounded=0;whiteSpace=wrap;html=1;strokeColor=light-dark(#000000,#049402);" vertex="1" parent="1">
          <mxGeometry x="340" y="180" width="120" height="60" as="geometry" />
        </mxCell>
        <mxCell id="QKP0d6ILZ1PcQhUBXS5q-33" style="edgeStyle=orthogonalEdgeStyle;rounded=0;orthogonalLoop=1;jettySize=auto;html=1;" edge="1" parent="1" source="QKP0d6ILZ1PcQhUBXS5q-1" target="QKP0d6ILZ1PcQhUBXS5q-32">
          <mxGeometry relative="1" as="geometry" />
        </mxCell>
        <mxCell id="QKP0d6ILZ1PcQhUBXS5q-1" value="&lt;b&gt;Clicar em no menu &quot;Cronograma&quot; no cabeçalho da Home&lt;/b&gt;" style="rounded=0;whiteSpace=wrap;html=1;strokeColor=light-dark(#000000,#049402);" vertex="1" parent="1">
          <mxGeometry x="170" y="180" width="120" height="60" as="geometry" />
        </mxCell>
        <mxCell id="QKP0d6ILZ1PcQhUBXS5q-31" style="edgeStyle=orthogonalEdgeStyle;rounded=0;orthogonalLoop=1;jettySize=auto;html=1;entryX=0.5;entryY=0;entryDx=0;entryDy=0;strokeColor=light-dark(#049402,#049402);" edge="1" parent="1" source="QKP0d6ILZ1PcQhUBXS5q-9" target="QKP0d6ILZ1PcQhUBXS5q-27">
          <mxGeometry relative="1" as="geometry">
            <Array as="points">
              <mxPoint x="570" y="370" />
              <mxPoint x="400" y="370" />
            </Array>
          </mxGeometry>
        </mxCell>
        <mxCell id="QKP0d6ILZ1PcQhUBXS5q-9" value="&lt;div&gt;&lt;b&gt;Clicar no botão&lt;/b&gt;&lt;/div&gt;&lt;div&gt;&lt;b&gt;&quot;Área do participante&quot; no cabeçalho da Home&lt;/b&gt;&lt;/div&gt;" style="rounded=0;whiteSpace=wrap;html=1;strokeColor=light-dark(#000000,#049402);" vertex="1" parent="1">
          <mxGeometry x="510" y="180" width="120" height="60" as="geometry" />
        </mxCell>
        <mxCell id="QKP0d6ILZ1PcQhUBXS5q-26" style="edgeStyle=orthogonalEdgeStyle;rounded=0;orthogonalLoop=1;jettySize=auto;html=1;strokeColor=light-dark(#049402,#049402);" edge="1" parent="1" source="QKP0d6ILZ1PcQhUBXS5q-23" target="QKP0d6ILZ1PcQhUBXS5q-25">
          <mxGeometry relative="1" as="geometry" />
        </mxCell>
        <mxCell id="QKP0d6ILZ1PcQhUBXS5q-23" value="&lt;b&gt;Clicar no botão &quot;Cadastre-se&quot; na tela de login e cadastro&lt;/b&gt;" style="rounded=0;whiteSpace=wrap;html=1;strokeColor=light-dark(#000000,#049402);" vertex="1" parent="1">
          <mxGeometry x="120" y="590" width="120" height="60" as="geometry" />
        </mxCell>
        <mxCell id="QKP0d6ILZ1PcQhUBXS5q-38" value="" style="edgeStyle=orthogonalEdgeStyle;rounded=0;orthogonalLoop=1;jettySize=auto;html=1;strokeColor=light-dark(#049402,#049402);" edge="1" parent="1" source="QKP0d6ILZ1PcQhUBXS5q-25" target="QKP0d6ILZ1PcQhUBXS5q-37">
          <mxGeometry relative="1" as="geometry" />
        </mxCell>
        <mxCell id="QKP0d6ILZ1PcQhUBXS5q-25" value="&lt;div&gt;&lt;b&gt;Preencher o&lt;/b&gt;&lt;/div&gt;&lt;div&gt;&lt;b&gt;formulário com as&amp;nbsp;&lt;/b&gt;&lt;/div&gt;&lt;div&gt;&lt;b&gt;suas informações&lt;/b&gt;&lt;/div&gt;" style="shape=parallelogram;perimeter=parallelogramPerimeter;whiteSpace=wrap;html=1;fixedSize=1;strokeColor=light-dark(#049402,#049402);" vertex="1" parent="1">
          <mxGeometry x="100" y="710" width="160" height="70" as="geometry" />
        </mxCell>
        <mxCell id="QKP0d6ILZ1PcQhUBXS5q-35" style="edgeStyle=orthogonalEdgeStyle;rounded=0;orthogonalLoop=1;jettySize=auto;html=1;strokeColor=light-dark(#049402,#049402);" edge="1" parent="1" source="QKP0d6ILZ1PcQhUBXS5q-27" target="QKP0d6ILZ1PcQhUBXS5q-4">
          <mxGeometry relative="1" as="geometry" />
        </mxCell>
        <mxCell id="QKP0d6ILZ1PcQhUBXS5q-27" value="&lt;b&gt;Tela de Login e Cadastro&lt;/b&gt;" style="rounded=0;whiteSpace=wrap;html=1;strokeColor=light-dark(#049402,#049402);" vertex="1" parent="1">
          <mxGeometry x="340" y="430" width="120" height="60" as="geometry" />
        </mxCell>
        <mxCell id="QKP0d6ILZ1PcQhUBXS5q-34" style="edgeStyle=orthogonalEdgeStyle;rounded=0;orthogonalLoop=1;jettySize=auto;html=1;entryX=0.5;entryY=0;entryDx=0;entryDy=0;strokeColor=light-dark(#049402,#049402);" edge="1" parent="1" source="QKP0d6ILZ1PcQhUBXS5q-32" target="QKP0d6ILZ1PcQhUBXS5q-27">
          <mxGeometry relative="1" as="geometry">
            <Array as="points">
              <mxPoint x="230" y="370" />
              <mxPoint x="400" y="370" />
            </Array>
          </mxGeometry>
        </mxCell>
        <mxCell id="QKP0d6ILZ1PcQhUBXS5q-32" value="&lt;div&gt;&lt;b&gt;Clicar em&amp;nbsp;&lt;/b&gt;&lt;/div&gt;&lt;div&gt;&lt;b&gt;&quot;Inscreva-se&quot; em qualquer atividade do cronograma&lt;/b&gt;&lt;/div&gt;" style="rounded=0;whiteSpace=wrap;html=1;strokeColor=light-dark(#000000,#049402);" vertex="1" parent="1">
          <mxGeometry x="170" y="280" width="120" height="60" as="geometry" />
        </mxCell>
        <mxCell id="QKP0d6ILZ1PcQhUBXS5q-40" value="" style="edgeStyle=orthogonalEdgeStyle;rounded=0;orthogonalLoop=1;jettySize=auto;html=1;strokeColor=light-dark(#049402,#049402);" edge="1" parent="1" source="QKP0d6ILZ1PcQhUBXS5q-37" target="QKP0d6ILZ1PcQhUBXS5q-39">
          <mxGeometry relative="1" as="geometry" />
        </mxCell>
        <mxCell id="QKP0d6ILZ1PcQhUBXS5q-37" value="&lt;b&gt;Ler e aceitar os termos&lt;/b&gt;" style="whiteSpace=wrap;html=1;strokeColor=light-dark(#049402,#049402);" vertex="1" parent="1">
          <mxGeometry x="120" y="840" width="120" height="60" as="geometry" />
        </mxCell>
        <mxCell id="ZMmFen0MMPxZXxHnJG-l-2" style="edgeStyle=orthogonalEdgeStyle;rounded=0;orthogonalLoop=1;jettySize=auto;html=1;strokeColor=light-dark(#049402,#049402);" edge="1" parent="1" source="QKP0d6ILZ1PcQhUBXS5q-39" target="QKP0d6ILZ1PcQhUBXS5q-45">
          <mxGeometry relative="1" as="geometry">
            <Array as="points">
              <mxPoint x="180" y="1060" />
              <mxPoint x="400" y="1060" />
            </Array>
          </mxGeometry>
        </mxCell>
        <mxCell id="QKP0d6ILZ1PcQhUBXS5q-39" value="&lt;b&gt;Finalizar cadastro&lt;/b&gt;" style="whiteSpace=wrap;html=1;strokeColor=light-dark(#049402,#049402);" vertex="1" parent="1">
          <mxGeometry x="120" y="960" width="120" height="60" as="geometry" />
        </mxCell>
        <mxCell id="ZMmFen0MMPxZXxHnJG-l-3" value="" style="edgeStyle=orthogonalEdgeStyle;rounded=0;orthogonalLoop=1;jettySize=auto;html=1;strokeColor=light-dark(#049402,#049402);" edge="1" parent="1" source="QKP0d6ILZ1PcQhUBXS5q-45" target="QKP0d6ILZ1PcQhUBXS5q-46">
          <mxGeometry relative="1" as="geometry" />
        </mxCell>
        <mxCell id="QKP0d6ILZ1PcQhUBXS5q-45" value="&lt;div&gt;&lt;b&gt;Inserir seu email institucional e senha cadastrados nos&lt;/b&gt;&lt;/div&gt;&lt;div&gt;&lt;b&gt;espaços indicados&lt;/b&gt;&lt;/div&gt;" style="shape=parallelogram;perimeter=parallelogramPerimeter;whiteSpace=wrap;html=1;fixedSize=1;strokeColor=light-dark(#049402,#049402);" vertex="1" parent="1">
          <mxGeometry x="320" y="1110" width="160" height="70" as="geometry" />
        </mxCell>
        <mxCell id="ZMmFen0MMPxZXxHnJG-l-4" value="" style="edgeStyle=orthogonalEdgeStyle;rounded=0;orthogonalLoop=1;jettySize=auto;html=1;strokeColor=light-dark(#049402,#049402);" edge="1" parent="1" source="QKP0d6ILZ1PcQhUBXS5q-46" target="QKP0d6ILZ1PcQhUBXS5q-49">
          <mxGeometry relative="1" as="geometry" />
        </mxCell>
        <mxCell id="QKP0d6ILZ1PcQhUBXS5q-46" value="&lt;b&gt;Clicar no botão &quot;Login&quot;, para acessar à área do participante&lt;/b&gt;" style="whiteSpace=wrap;html=1;strokeColor=light-dark(#049402,#049402);" vertex="1" parent="1">
          <mxGeometry x="340" y="1240" width="120" height="60" as="geometry" />
        </mxCell>
        <mxCell id="QKP0d6ILZ1PcQhUBXS5q-67" value="" style="edgeStyle=orthogonalEdgeStyle;rounded=0;orthogonalLoop=1;jettySize=auto;html=1;strokeColor=light-dark(#049402,#049402);" edge="1" parent="1" source="QKP0d6ILZ1PcQhUBXS5q-49" target="QKP0d6ILZ1PcQhUBXS5q-66">
          <mxGeometry relative="1" as="geometry" />
        </mxCell>
        <mxCell id="QKP0d6ILZ1PcQhUBXS5q-49" value="&lt;b&gt;Na área do participante, clicar em &quot;Programação&quot;, para se inscrever em alguma atividade&lt;/b&gt;" style="whiteSpace=wrap;html=1;strokeColor=light-dark(#049402,#049402);" vertex="1" parent="1">
          <mxGeometry x="332.5" y="1360" width="135" height="80" as="geometry" />
        </mxCell>
        <mxCell id="_b36Iz_t6wnjAEXblFU1-2" value="" style="edgeStyle=orthogonalEdgeStyle;rounded=0;orthogonalLoop=1;jettySize=auto;html=1;labelBorderColor=none;strokeColor=light-dark(#049402,#049402);" edge="1" parent="1" source="QKP0d6ILZ1PcQhUBXS5q-51" target="_b36Iz_t6wnjAEXblFU1-1">
          <mxGeometry relative="1" as="geometry" />
        </mxCell>
        <mxCell id="QKP0d6ILZ1PcQhUBXS5q-51" value="&lt;div&gt;&lt;b&gt;Clicar em &lt;br&gt;&lt;/b&gt;&lt;/div&gt;&lt;div&gt;&lt;b&gt;&quot;Inscreva-se&quot; na programação desejada&lt;/b&gt;&lt;/div&gt;" style="whiteSpace=wrap;html=1;strokeColor=light-dark(#049402,#049402);labelBorderColor=none;" vertex="1" parent="1">
          <mxGeometry x="560" y="1640" width="120" height="60" as="geometry" />
        </mxCell>
        <mxCell id="QKP0d6ILZ1PcQhUBXS5q-58" value="" style="edgeStyle=orthogonalEdgeStyle;rounded=0;orthogonalLoop=1;jettySize=auto;html=1;strokeColor=light-dark(#049402,#049402);entryX=0;entryY=0.5;entryDx=0;entryDy=0;labelBorderColor=none;" edge="1" parent="1" source="QKP0d6ILZ1PcQhUBXS5q-55" target="QKP0d6ILZ1PcQhUBXS5q-51">
          <mxGeometry relative="1" as="geometry">
            <mxPoint x="510" y="1670" as="targetPoint" />
          </mxGeometry>
        </mxCell>
        <mxCell id="QKP0d6ILZ1PcQhUBXS5q-78" value="&lt;b&gt;SIM&lt;/b&gt;" style="edgeLabel;html=1;align=center;verticalAlign=middle;resizable=0;points=[];labelBorderColor=none;" vertex="1" connectable="0" parent="QKP0d6ILZ1PcQhUBXS5q-58">
          <mxGeometry x="-0.0063" y="-1" relative="1" as="geometry">
            <mxPoint as="offset" />
          </mxGeometry>
        </mxCell>
        <mxCell id="QKP0d6ILZ1PcQhUBXS5q-62" value="" style="edgeStyle=orthogonalEdgeStyle;rounded=0;orthogonalLoop=1;jettySize=auto;html=1;strokeColor=light-dark(#049402,#049402);entryX=1;entryY=0.5;entryDx=0;entryDy=0;labelBorderColor=none;" edge="1" parent="1" source="QKP0d6ILZ1PcQhUBXS5q-55" target="QKP0d6ILZ1PcQhUBXS5q-63">
          <mxGeometry relative="1" as="geometry">
            <mxPoint x="290" y="1670" as="targetPoint" />
          </mxGeometry>
        </mxCell>
        <mxCell id="QKP0d6ILZ1PcQhUBXS5q-77" value="NÃO" style="edgeLabel;html=1;align=center;verticalAlign=middle;resizable=0;points=[];fontStyle=1;labelBorderColor=none;" vertex="1" connectable="0" parent="QKP0d6ILZ1PcQhUBXS5q-62">
          <mxGeometry x="0.0021" y="-1" relative="1" as="geometry">
            <mxPoint as="offset" />
          </mxGeometry>
        </mxCell>
        <mxCell id="QKP0d6ILZ1PcQhUBXS5q-55" value="&lt;b&gt;Ainda há vaga?&lt;/b&gt;" style="rhombus;whiteSpace=wrap;html=1;strokeColor=light-dark(#049402,#049402);labelBorderColor=none;" vertex="1" parent="1">
          <mxGeometry x="335" y="1620" width="130" height="100" as="geometry" />
        </mxCell>
        <mxCell id="_b36Iz_t6wnjAEXblFU1-4" value="" style="edgeStyle=orthogonalEdgeStyle;rounded=0;orthogonalLoop=1;jettySize=auto;html=1;labelBorderColor=none;strokeColor=light-dark(#049402,#049402);" edge="1" parent="1" source="QKP0d6ILZ1PcQhUBXS5q-63" target="_b36Iz_t6wnjAEXblFU1-3">
          <mxGeometry relative="1" as="geometry" />
        </mxCell>
        <mxCell id="QKP0d6ILZ1PcQhUBXS5q-63" value="&lt;b&gt;Pastelou&lt;/b&gt;" style="whiteSpace=wrap;html=1;strokeColor=light-dark(#049402,#049402);labelBorderColor=none;" vertex="1" parent="1">
          <mxGeometry x="120" y="1640" width="120" height="60" as="geometry" />
        </mxCell>
        <mxCell id="QKP0d6ILZ1PcQhUBXS5q-68" value="" style="edgeStyle=orthogonalEdgeStyle;rounded=0;orthogonalLoop=1;jettySize=auto;html=1;strokeColor=light-dark(#049402,#049402);labelBorderColor=light-dark(#049402,#049402);" edge="1" parent="1" source="QKP0d6ILZ1PcQhUBXS5q-66" target="QKP0d6ILZ1PcQhUBXS5q-55">
          <mxGeometry relative="1" as="geometry" />
        </mxCell>
        <mxCell id="QKP0d6ILZ1PcQhUBXS5q-66" value="&lt;b&gt;Selecionar a programação desejada&lt;/b&gt;" style="whiteSpace=wrap;html=1;strokeColor=light-dark(#049402,#049402);" vertex="1" parent="1">
          <mxGeometry x="340" y="1500" width="120" height="60" as="geometry" />
        </mxCell>
        <mxCell id="QKP0d6ILZ1PcQhUBXS5q-72" value="&lt;b&gt;NOVOS USUÁRIOS&lt;/b&gt;" style="text;html=1;align=center;verticalAlign=middle;resizable=0;points=[];autosize=1;strokeColor=none;fillColor=none;" vertex="1" parent="1">
          <mxGeometry x="110" y="550" width="130" height="30" as="geometry" />
        </mxCell>
        <mxCell id="QKP0d6ILZ1PcQhUBXS5q-74" value="&lt;b&gt;USUÁRIOS EXISTENTES&lt;/b&gt;" style="text;html=1;align=center;verticalAlign=middle;resizable=0;points=[];autosize=1;strokeColor=none;fillColor=none;" vertex="1" parent="1">
          <mxGeometry x="545" y="550" width="160" height="30" as="geometry" />
        </mxCell>
        <mxCell id="_b36Iz_t6wnjAEXblFU1-6" style="edgeStyle=orthogonalEdgeStyle;rounded=0;orthogonalLoop=1;jettySize=auto;html=1;labelBorderColor=none;strokeColor=light-dark(#049402,#049402);" edge="1" parent="1" source="_b36Iz_t6wnjAEXblFU1-1" target="QKP0d6ILZ1PcQhUBXS5q-3">
          <mxGeometry relative="1" as="geometry" />
        </mxCell>
        <mxCell id="_b36Iz_t6wnjAEXblFU1-1" value="&lt;b&gt;Botão &quot;Inscreva-se&quot; verde muda para um roxo escrito &quot;Inscrito&quot;&lt;/b&gt;" style="whiteSpace=wrap;html=1;strokeColor=light-dark(#049402,#049402);labelBorderColor=none;" vertex="1" parent="1">
          <mxGeometry x="560" y="1760" width="120" height="60" as="geometry" />
        </mxCell>
        <mxCell id="_b36Iz_t6wnjAEXblFU1-5" style="edgeStyle=orthogonalEdgeStyle;rounded=0;orthogonalLoop=1;jettySize=auto;html=1;labelBorderColor=none;strokeColor=light-dark(#049402,#049402);" edge="1" parent="1" source="_b36Iz_t6wnjAEXblFU1-3" target="QKP0d6ILZ1PcQhUBXS5q-3">
          <mxGeometry relative="1" as="geometry" />
        </mxCell>
        <mxCell id="_b36Iz_t6wnjAEXblFU1-3" value="&lt;b&gt;Botão &quot;Inscreva-se&quot; verde muda para um cinza escrito &quot;Lotado&quot;&lt;/b&gt;" style="whiteSpace=wrap;html=1;strokeColor=light-dark(#049402,#049402);labelBorderColor=none;" vertex="1" parent="1">
          <mxGeometry x="120" y="1760" width="120" height="60" as="geometry" />
        </mxCell>
      </root>
    </mxGraphModel>
  </diagram>
  <diagram id="QOChdjpz-Pf-fCbqsA7_" name="Page-3">
    <mxGraphModel grid="1" page="1" gridSize="10" guides="1" tooltips="1" connect="1" arrows="1" fold="1" pageScale="1" pageWidth="850" pageHeight="1100" math="0" shadow="0">
      <root>
        <mxCell id="0" />
        <mxCell id="1" parent="0" />
      </root>
    </mxGraphModel>
  </diagram>
</mxfile>
